<svg xmlns="http://www.w3.org/2000/svg" viewBox="0 0 8.83 12.84"><defs><style>.cls-1{fill:#f58220;}</style></defs><title>Asset 12</title><g id="Layer_2" data-name="Layer 2"><g id="clamp_images" data-name="clamp images"><path class="cls-1" d="M8,8.83A3.22,3.22,0,0,0,4.82,12a.79.79,0,0,0,.8.81h0A3.24,3.24,0,0,0,8.83,9.63a.82.82,0,0,0-.24-.57A.86.86,0,0,0,8,8.83Z"/><path class="cls-1" d="M8,4.41a3.22,3.22,0,0,0-3.2,3.21.77.77,0,0,0,.23.57.8.8,0,0,0,.57.24h0A3.24,3.24,0,0,0,8.83,5.22a.82.82,0,0,0-.24-.57A.92.92,0,0,0,8,4.41Z"/><path class="cls-1" d="M.81,8.83a.82.82,0,0,0-.58.23A.81.81,0,0,0,0,9.63a3.24,3.24,0,0,0,3.21,3.21h0a.81.81,0,0,0,.57-.23A.83.83,0,0,0,4,12a3.22,3.22,0,0,0-3.2-3.2Z"/><path class="cls-1" d="M.81,4.41a.87.87,0,0,0-.58.24A.81.81,0,0,0,0,5.22,3.24,3.24,0,0,0,3.21,8.43h0a.82.82,0,0,0,.57-.24A.81.81,0,0,0,4,7.62,3.23,3.23,0,0,0,.81,4.41Z"/><path class="cls-1" d="M6,2.61A3.24,3.24,0,0,0,5,.22a.79.79,0,0,0-1.09,0A3.22,3.22,0,0,0,3.87,5,.79.79,0,0,0,5,5,3.27,3.27,0,0,0,6,2.61Z"/></g></g></svg>