<svg xmlns="http://www.w3.org/2000/svg" viewBox="0 0 13.4 11.1"><defs><style>.cls-1{fill:#f58220;}</style></defs><title>Asset 11</title><g id="Layer_2" data-name="Layer 2"><g id="clamp_images" data-name="clamp images"><path class="cls-1" d="M13.4,6.17a1.72,1.72,0,0,0-.17-.75,1.16,1.16,0,0,0,0-.18L12,2.36v0C11.61,1.12,11,0,9.56,0H4c-1.51,0-2,1.15-2.46,2.33L.28,5.22a1.73,1.73,0,0,0-.28,1v.89a1.84,1.84,0,0,0,.05.41.7.7,0,0,0,0,.25v2.67a.71.71,0,0,0,.71.71H2.18a.71.71,0,0,0,.71-.71V9.06h7.7v1.33a.71.71,0,0,0,.71.71h1.39a.71.71,0,0,0,.71-.71V7.72a.7.7,0,0,0-.05-.25,1.84,1.84,0,0,0,.05-.41Zm-11-3.55C2.82,1.31,3.19.91,4,.91H9.56c.75,0,1.17.45,1.59,1.7L12,4.33a2.66,2.66,0,0,0-.9-.16H2.3a2.76,2.76,0,0,0-.82.13ZM3.09,7.4H1.53A.5.5,0,0,1,1,6.9a.51.51,0,0,1,.5-.51H3.09a.5.5,0,0,1,.5.51.5.5,0,0,1-.5.5Zm5.48-.1H5a.32.32,0,1,1,0-.64H8.57a.32.32,0,1,1,0,.64Zm3.25.1H10.27a.5.5,0,0,1-.5-.5.5.5,0,0,1,.5-.51h1.55a.51.51,0,0,1,.51.51.5.5,0,0,1-.51.5Z"/></g></g></svg>