<svg xmlns="http://www.w3.org/2000/svg" viewBox="0 0 11.87 12.67"><defs><style>.cls-1{fill:#f58220;}</style></defs><title>Asset 10</title><g id="Layer_2" data-name="Layer 2"><g id="clamp_images" data-name="clamp images"><path class="cls-1" d="M11.53,10.67,7.45,6.59a.69.69,0,0,0-.13-.11l.73-.76.1-.12a2.69,2.69,0,0,0,3.64-2.75.23.23,0,0,0-.15-.19.25.25,0,0,0-.25,0L10.08,4,8.76,3.68,8.38,2.32,9.69,1A.22.22,0,0,0,9.75.77a.25.25,0,0,0-.2-.16A2.69,2.69,0,0,0,6.8,4.25l-.12.1-1.06,1-2-2-.07-.06.06-.13c.42.08,1.17-.72,1.81-1.36L3.59,0C2.76.83,2.15,1.4,2.23,1.81a1.76,1.76,0,0,0-.48.33l-.27.26a1.12,1.12,0,0,0-.31.6.86.86,0,0,0-.07.1L1,3.22l0,0L.9,3.36l-.16.23a.41.41,0,0,1-.05.09v0l0,.07L.5,4.05v0a2.35,2.35,0,0,0-.14.37l0,.06a1.55,1.55,0,0,0,0,.15l0,.18c0,.11,0,.22,0,.32v.06a1.31,1.31,0,0,0,0,.28v.14a.57.57,0,0,0,0,.13l0,.15s0,0,0,.08l0,.18.1.33a.23.23,0,0,0,.23.16.27.27,0,0,0,.14-.07.17.17,0,0,0,.06-.12l.05-.34L.9,6a.31.31,0,0,0,0-.08l0-.13,0,0,0,0,0-.09a.55.55,0,0,1,.08-.15l0-.07.11-.16h0l.09-.11,0-.06,0-.05a1.29,1.29,0,0,1,.17-.16l0,0,.13-.11.06,0,.08,0L2,4.54l.1,0,.1,0,.1-.05,0,0,.05,0,.07,0h0l.11.13L4.56,6.39l-4.13,4h0a1.22,1.22,0,0,0-.08,1.78A1.18,1.18,0,0,0,2.08,12h0L5.72,8.17l.07.07,4.08,4.08a1.17,1.17,0,0,0,1.66,0,1.16,1.16,0,0,0,0-1.65Z"/></g></g></svg>