<svg xmlns="http://www.w3.org/2000/svg" viewBox="0 0 9.14 13.06"><defs><style>.cls-1{fill:#f58220;}</style></defs><title>Asset 9</title><g id="Layer_2" data-name="Layer 2"><g id="clamp_images" data-name="clamp images"><path class="cls-1" d="M9,3H7.37V.17A.17.17,0,0,0,7.2,0H5.94a.17.17,0,0,0-.17.17V3H3.37V.17A.17.17,0,0,0,3.2,0H1.94a.17.17,0,0,0-.17.17V3H.17A.18.18,0,0,0,0,3.15V7.69A1.67,1.67,0,0,0,1.67,9.36h5.8A1.67,1.67,0,0,0,9.14,7.69V3.15A.17.17,0,0,0,9,3Z"/><rect class="cls-1" x="3.79" y="10.06" width="1.57" height="2.99"/></g></g></svg>