<svg xmlns="http://www.w3.org/2000/svg" viewBox="0 0 12.97 9.15"><defs><style>.cls-1{fill:#f58220;}</style></defs><title>Asset 7</title><g id="Layer_2" data-name="Layer 2"><g id="clamp_images" data-name="clamp images"><path class="cls-1" d="M2,7.67a4.53,4.53,0,0,1,0-.53,10.52,10.52,0,0,1,.22-1.27c.06-.21.13-.42.19-.62l.25-.58a4.62,4.62,0,0,1,.64-1,1.84,1.84,0,0,1,.17-.22c.06-.07.13-.13.19-.19S4,3,4.09,2.91a4.66,4.66,0,0,1,.73-.49,3.71,3.71,0,0,1,.6-.3L6,1.91l-.46.35c-.15.1-.31.25-.5.41a6.37,6.37,0,0,0-.59.58c-.11.11-.19.24-.29.36L4,3.8,3.84,4A5.53,5.53,0,0,0,3.36,5l-.18.53c-.05.19-.09.37-.15.56a11.17,11.17,0,0,0-.18,1.18c0,.15,0,.29-.05.44H12c0-.15,0-.3,0-.46A5.61,5.61,0,0,0,7.1,1.57a.91.91,0,1,0-1.23,0A5.61,5.61,0,0,0,1,7.21a3.46,3.46,0,0,0,0,.46Z"/><rect class="cls-1" y="8.01" width="12.97" height="1.15"/></g></g></svg>