<svg xmlns="http://www.w3.org/2000/svg" viewBox="0 0 9.29 14.44"><defs><style>.cls-1{fill:#f58220;}</style></defs><title>Asset 5</title><g id="Layer_2" data-name="Layer 2"><g id="clamp_images" data-name="clamp images"><path class="cls-1" d="M6.79,12.07v.55a.86.86,0,0,1-.74.86l-.13.5a.63.63,0,0,1-.61.46H4a.61.61,0,0,1-.6-.46l-.14-.5a.87.87,0,0,1-.74-.87v-.55A.53.53,0,0,1,3,11.53H6.26a.54.54,0,0,1,.53.54Zm2.5-7.43A4.63,4.63,0,0,1,8,7.87a4.22,4.22,0,0,0-1.14,2.31.76.76,0,0,1-.76.64H3.2a.76.76,0,0,1-.76-.64A4.28,4.28,0,0,0,1.3,7.86,4.58,4.58,0,0,1,0,4.69a4.65,4.65,0,1,1,9.29-.05ZM5.17,1.83a.52.52,0,0,0-.53-.52A3.36,3.36,0,0,0,1.29,4.66a.52.52,0,0,0,.52.52.52.52,0,0,0,.53-.52,2.31,2.31,0,0,1,2.3-2.31.52.52,0,0,0,.53-.52Z"/></g></g></svg>