<svg xmlns="http://www.w3.org/2000/svg" viewBox="0 0 11.61 13.78"><defs><style>.cls-1{fill:#f58220;}</style></defs><title>Asset 4</title><g id="Layer_2" data-name="Layer 2"><g id="clamp_images" data-name="clamp images"><path class="cls-1" d="M0,10.16a2.05,2.05,0,0,0,.73,1.59v1.31a.68.68,0,0,0,.72.72h.72a.69.69,0,0,0,.73-.72v-.72H8.71v.72a.68.68,0,0,0,.72.72h.73a.68.68,0,0,0,.72-.72V11.75a2.05,2.05,0,0,0,.73-1.59V2.9C11.61.36,9,0,5.8,0S0,.36,0,2.9Zm2.54.72a1.09,1.09,0,1,1,0-2.17,1.09,1.09,0,1,1,0,2.17Zm6.53,0A1.09,1.09,0,1,1,10.16,9.8a1.11,1.11,0,0,1-1.09,1.08Zm1.09-4.35H1.45V2.9h8.71Z"/></g></g></svg>