<svg xmlns="http://www.w3.org/2000/svg" viewBox="0 0 13.11 13.11"><defs><style>.cls-1{fill:#f58220;}</style></defs><title>Asset 3</title><g id="Layer_2" data-name="Layer 2"><g id="clamp_images" data-name="clamp images"><path class="cls-1" d="M11.25,2.6H10.06V1.87A1.87,1.87,0,0,0,8.19,0H4.92A1.87,1.87,0,0,0,3.05,1.87V2.6H1.87A1.77,1.77,0,0,0,0,4.34v6.9a1.87,1.87,0,0,0,1.87,1.87h9.38a1.87,1.87,0,0,0,1.86-1.87V4.34A1.76,1.76,0,0,0,11.25,2.6Zm-7.2-.73A.9.9,0,0,1,4.92,1H8.19a.9.9,0,0,1,.87.87V2.6h-5ZM9.56,9.11h-2v2h-2v-2h-2V6.6h2v-2h2v2h2Z"/></g></g></svg>