<svg xmlns="http://www.w3.org/2000/svg" viewBox="0 0 15.2 15.2"><defs><style>.cls-1{fill:#f58220;}</style></defs><title>Asset 2</title><g id="Layer_2" data-name="Layer 2"><g id="clamp_images" data-name="clamp images"><path class="cls-1" d="M7.6,3.79A3.81,3.81,0,1,0,11.41,7.6,3.82,3.82,0,0,0,7.6,3.79Z"/><path class="cls-1" d="M7.6,2.67a.74.74,0,0,1-.74-.74V.74a.74.74,0,0,1,1.48,0V1.93a.74.74,0,0,1-.74.74Z"/><path class="cls-1" d="M7.6,12.53a.74.74,0,0,0-.74.74v1.19a.74.74,0,1,0,1.48,0V13.27a.74.74,0,0,0-.74-.74Z"/><path class="cls-1" d="M11.08,4.12a.74.74,0,0,1,0-1.05l.84-.84a.74.74,0,0,1,1.05,1l-.84.84a.74.74,0,0,1-1.05,0Z"/><path class="cls-1" d="M4.12,11.08a.74.74,0,0,0-1.05,0l-.85.84A.75.75,0,0,0,3.28,13l.84-.84a.74.74,0,0,0,0-1.05Z"/><path class="cls-1" d="M12.53,7.6a.74.74,0,0,1,.74-.74h1.19a.74.74,0,0,1,0,1.48H13.27a.74.74,0,0,1-.74-.74Z"/><path class="cls-1" d="M2.67,7.6a.74.74,0,0,0-.74-.74H.74a.74.74,0,1,0,0,1.48H1.93a.74.74,0,0,0,.74-.74Z"/><path class="cls-1" d="M11.08,11.08a.74.74,0,0,1,1.05,0l.84.84A.74.74,0,0,1,11.92,13l-.84-.84a.74.74,0,0,1,0-1.05Z"/><path class="cls-1" d="M4.12,4.12a.74.74,0,0,0,0-1.05l-.84-.84a.75.75,0,0,0-1.06,1l.85.84a.74.74,0,0,0,1.05,0Z"/></g></g></svg>